<?xml version="1.0" encoding="utf-8"?>
<!-- Generator: Adobe Illustrator 16.0.0, SVG Export Plug-In . SVG Version: 6.00 Build 0)  -->
<!DOCTYPE svg PUBLIC "-//W3C//DTD SVG 1.1//EN" "http://www.w3.org/Graphics/SVG/1.1/DTD/svg11.dtd">
<svg version="1.1" id="Layer_1" xmlns="http://www.w3.org/2000/svg" xmlns:xlink="http://www.w3.org/1999/xlink" x="0px" y="0px"
	 width="64px" height="64px" viewBox="0 0 64 64" enable-background="new 0 0 64 64" xml:space="preserve">
<path fill="#FFFFFF" d="M62.828,19.343L52.668,9.182c-0.75-0.75-1.768-1.172-2.829-1.172H14.162c-1.06,0-2.077,0.422-2.829,1.172
	L1.174,19.343C0.388,20.127-0.005,21.162,0,22.198c0.006,0.939,0.341,1.878,1.011,2.633l28,29.816
	C29.77,55.5,30.857,55.988,32,55.988c1.143,0,2.231-0.488,2.991-1.342l28-29.816c0.684-0.77,1.021-1.734,1.009-2.695
	C63.991,21.121,63.597,20.113,62.828,19.343L62.828,19.343z M36.44,22.01h-8.879L32,18.312L36.44,22.01L36.44,22.01z M33.562,17.009
	l5.467-4.556l4.035,4.035L38,20.708L33.562,17.009L33.562,17.009z M26,20.708l-5.065-4.22l4.035-4.035l5.467,4.556L26,20.708
	L26,20.708z M36.98,24.01L32,48.914l-4.98-24.904H36.98L36.98,24.01z M39.02,24.01h9.815L34.112,48.547L39.02,24.01L39.02,24.01z
	 M39.561,22.01l4.925-4.101l4.101,4.101H39.561L39.561,22.01z M41.414,12.01h7.024l-3.831,3.193L41.414,12.01L41.414,12.01z
	 M32,15.71l-4.438-3.7h8.879L32,15.71L32,15.71z M19.392,15.203l-3.832-3.193h7.024L19.392,15.203L19.392,15.203z M19.516,17.909
	l4.924,4.101h-9.026L19.516,17.909L19.516,17.909z M24.98,24.01l4.907,24.537L15.167,24.01H24.98L24.98,24.01z M25.409,44.966
	L5.729,24.01h7.107L25.409,44.966L25.409,44.966z M51.163,24.01h7.111L38.589,44.97L51.163,24.01L51.163,24.01z M51.414,22.01
	l-5.388-5.387l4.597-3.83l9.215,9.217H51.414L51.414,22.01z M13.371,12.79l4.602,3.833l-5.387,5.387H4.011L13.371,12.79
	L13.371,12.79z"/>
</svg>
