<?xml version="1.0" encoding="utf-8"?>
<!-- Generator: Adobe Illustrator 16.0.0, SVG Export Plug-In . SVG Version: 6.00 Build 0)  -->
<!DOCTYPE svg PUBLIC "-//W3C//DTD SVG 1.1//EN" "http://www.w3.org/Graphics/SVG/1.1/DTD/svg11.dtd">
<svg version="1.1" id="Layer_1" xmlns="http://www.w3.org/2000/svg" xmlns:xlink="http://www.w3.org/1999/xlink" x="0px" y="0px"
	 width="64px" height="64px" viewBox="0 0 64 64" enable-background="new 0 0 64 64" xml:space="preserve">
<path fill="#FFFFFF" d="M63.973,28.816l-0.023,0.418c-0.057,1.479-0.574,3.081-1.708,4.351c0.761,1.408,1.049,3.101,0.78,4.744
	c-0.436,2.652-1.467,4.392-2.674,5.531c0.522,1.281,0.75,3.07-0.001,5.454c-0.453,1.453-1.143,3.684-3.29,5.16
	c0.339,1.312,0.234,2.604-0.047,3.521c-0.374,1.215-0.836,2.111-0.858,2.15c-1.429,2.575-3.83,3.856-7.163,3.856H38.057
	c-5.565,0-10.929-1.144-11.948-1.376c-4.739-1.089-6.957-1.619-8.109-1.906c-0.038-0.011-0.056-0.016-0.091-0.023
	c-0.192-0.05-0.346-0.089-0.479-0.125c-0.028-0.003-0.07-0.016-0.094-0.023c-0.966,2.016-2.955,3.454-5.335,3.454H6
	c-3.309,0-6-2.691-6-5.999V26c0-3.307,2.691-5.999,6-5.999H12c1.493,0,2.949,0.693,3.999,1.6l-0.104-0.091
	c0.205-0.091,1.613-0.784,2.105-1.044c6.711-3.528,7.956-10.485,8-14.512C26.041,2.67,28.735,0,32,0
	c4.625,0,9.851,6.322,9.851,13.496c0,3.004-0.091,4.696-0.499,6.574c8.598,0.226,14.478,0.218,16.976,0.874
	c3.924,1.122,5.672,4.343,5.672,6.869C63.999,28.39,63.988,28.551,63.973,28.816L63.973,28.816z M14,26c0-1.104-0.895-2-2-2H6
	c-1.105,0-2,0.896-2,2v32.003c0,1.104,0.896,1.999,2,1.999H12c1.105,0,2-0.895,2-1.999V26L14,26z M57.624,24.751
	C55.859,24.288,56,24,36,24c1.662-4.941,1.852-5.761,1.852-10.504C37.852,8.245,34.116,4,32,4c-1.251,0-1.988,1.044-2,2
	c-0.082,6.813-2.863,15.11-12,18.893c-0.121,0.052-0.288,0.102-0.412,0.15c-0.991,0.299-1.589,1.147-1.589,2.083l0.016,27.625
	c0,1.477,1.692,1.761,1.692,1.761c0.521,0.148,0.959,0.298,9.267,2.212c0.141,0.031,5.589,1.277,11.083,1.277h10.932
	c2.062,0,3.034-0.656,3.641-1.745c0.014-0.028,0.308-0.631,0.559-1.443c0.229-0.74,0.125-2.812-2.063-2.812
	c-1.749,0-3.136,0-3.136,0c-0.553,0-1.001-0.448-1.001-0.999c0-0.554,0.448-1,1.001-1c0,0,1.824,0,3.263,0
	c4.253,0,4.644-1.872,5.279-3.891c0.487-1.535,0.783-4.11-2.594-4.11c-1.562,0-3.936,0-3.936,0c-0.555,0-1.001-0.447-1.001-0.998
	c0-0.556,0.446-1.001,1.001-1.001c0,0,1.374,0,4.751,0s4.078-2.82,4.322-4.313C59.27,36.49,58.875,34,55.875,34
	c-3.001,0-3.876,0-3.876,0c-0.552,0-1-0.446-1-0.999c0-0.554,0.448-1,1-1c0,0,1,0,4.001,0c3.5,0,3.914-1.941,3.955-2.93
	C59.98,28.399,60,28.498,60,27.812C60,27.188,59.812,25.376,57.624,24.751L57.624,24.751z M9,58.003c-1.656,0-3-1.345-3-3.002
	c0-1.656,1.344-2.999,3-2.999c1.656,0,3,1.343,3,2.999C12,56.658,10.656,58.003,9,58.003L9,58.003z M9,54.001c-0.551,0-1,0.45-1,1
	c0,0.551,0.449,1,1,1c0.551,0,1-0.449,1-1C10,54.451,9.551,54.001,9,54.001L9,54.001z"/>
<path fill="#FFFFFF" d="M38.057,62.002c-0.795,0-1.588-0.025-2.364-0.067C36.47,61.979,37.264,62.002,38.057,62.002h10.932
	c1.6,0,2.884-0.346,3.877-1.052c-0.991,0.712-2.264,1.052-3.877,1.052H38.057 M6,62.002c-0.93,0-1.788-0.319-2.468-0.854
	C4.212,61.683,5.07,62.002,6,62.002H12H6 M28.386,61.046c1.689,0.308,4.332,0.717,7.192,0.883
	C32.704,61.763,30.07,61.354,28.386,61.046 M28.107,60.994c0.041,0.008,0.081,0.016,0.122,0.023
	C28.187,61.01,28.148,61.002,28.107,60.994 M27.675,60.911c0.022,0.005,0.042,0.008,0.064,0.013
	C27.718,60.919,27.697,60.916,27.675,60.911 M3.04,60.69c0.064,0.07,0.133,0.141,0.202,0.206C3.173,60.831,3.104,60.761,3.04,60.69
	 M16.001,58.006c0.399,0.218,0.826,0.371,1.247,0.456c0.128,0.037,0.271,0.078,0.512,0.142c-0.04-0.008-0.074-0.014-0.094-0.017
	c0.016,0.003,0.083,0.017,0.165,0.034c0.017,0.005,0.036,0.01,0.055,0.014c-0.125-0.02-0.253-0.031-0.383-0.031
	c-0.64,0-1.313,0.254-1.724,0.714C15.922,58.907,16.001,58.465,16.001,58.006 M17.662,58.585c-0.005-0.001-0.01-0.001-0.011-0.001
	L17.662,58.585 M54.787,58.297c-0.003,0.008-0.008,0.018-0.011,0.025C54.779,58.314,54.784,58.305,54.787,58.297 M54.839,58.161
	c-0.012,0.031-0.025,0.062-0.036,0.092C54.813,58.224,54.827,58.192,54.839,58.161 M54.898,58.003
	c-0.012,0.028-0.021,0.055-0.032,0.083C54.878,58.058,54.887,58.031,54.898,58.003 M55.079,57.465
	c-0.051,0.162-0.103,0.319-0.156,0.466C54.975,57.784,55.028,57.629,55.079,57.465 M55.099,57.402
	c0.021-0.067,0.039-0.139,0.056-0.209c-0.017,0.074-0.035,0.145-0.056,0.212c-0.005,0.014-0.01,0.028-0.015,0.042
	C55.089,57.434,55.094,57.416,55.099,57.402 M54.45,53.553c0.519-0.172,0.963-0.386,1.346-0.632c-0.473,0.384-0.74,0.959-0.74,1.556
	c0,0.127,0.012,0.254,0.036,0.381C54.953,54.37,54.735,53.932,54.45,53.553 M58.36,48.963l0.078-0.251
	c0.016-0.05,0.031-0.102,0.047-0.151c-0.016,0.052-0.031,0.102-0.047,0.153c-0.002,0.006-0.005,0.017-0.005,0.017
	c-0.036,0.114-0.073,0.232-0.111,0.352C58.335,49.041,58.348,49.002,58.36,48.963 M58.825,46.419c0-1.094-0.337-2.226-1.15-3.07
	c0.39-0.197,0.774-0.449,1.14-0.771c-0.304,0.363-0.467,0.818-0.467,1.282c0,0.253,0.049,0.509,0.147,0.753
	c0.222,0.545,0.333,1.148,0.333,1.8c0,0.564-0.086,1.175-0.252,1.818C58.74,47.595,58.825,46.985,58.825,46.419 M61.066,37.885
	c-0.002,0.006,0,0.011-0.002,0.017C61.066,37.896,61.066,37.891,61.066,37.885 M61.116,37.143c0-0.802-0.161-1.574-0.465-2.262
	c0.307,0.688,0.468,1.451,0.468,2.23c0,0.175-0.008,0.353-0.024,0.529C61.108,37.479,61.116,37.312,61.116,37.143 M60.509,34.585
	c0.049,0.093,0.094,0.185,0.137,0.28C60.603,34.77,60.556,34.676,60.509,34.585 M60.049,33.865c-0.155-0.2-0.345-0.41-0.569-0.612
	c0.489-0.263,0.883-0.577,1.198-0.915c-0.289,0.359-0.437,0.801-0.437,1.247c0,0.319,0.077,0.637,0.231,0.932
	C60.348,34.286,60.207,34.068,60.049,33.865 M61.883,29.821c-0.073,0.449-0.222,0.986-0.507,1.527
	C61.661,30.802,61.809,30.262,61.883,29.821 M61.898,29.716c-0.001,0.008-0.001,0.016-0.003,0.023
	C61.897,29.731,61.897,29.724,61.898,29.716 M61.978,28.688c0,0.006-0.002,0.011-0.002,0.011
	C61.976,28.694,61.978,28.691,61.978,28.688 M61.978,28.673c0.008-0.124,0.012-0.229,0.017-0.369
	c-0.003,0.144-0.009,0.239-0.016,0.363c0,0-0.001,0.008-0.001,0.016C61.978,28.677,61.978,28.673,61.978,28.673 M61.996,28.252
	c0,0.005,0,0.011,0,0.016C61.996,28.264,61.996,28.257,61.996,28.252 M61.997,28.169c0,0.005,0,0.011,0,0.016
	C61.997,28.181,61.997,28.174,61.997,28.169 M14.957,23.308c0.312,0.191,0.662,0.287,1.011,0.293
	c-0.183,0.114-0.356,0.239-0.518,0.377C15.309,23.739,15.143,23.513,14.957,23.308 M18.934,22.234
	c0.368-0.194,0.725-0.397,1.072-0.613c-0.643,0.404-1.322,0.771-2.038,1.104C18.352,22.533,18.724,22.346,18.934,22.234
	 M38.757,22.003c0.592-1.91,0.873-3.202,1-4.897c-0.07,0.964-0.185,1.731-0.36,2.539c-0.031,0.143-0.045,0.287-0.045,0.429
	c0,0.443,0.146,0.878,0.426,1.233c0.275,0.349,0.654,0.593,1.076,0.702C40.186,22.006,39.484,22.004,38.757,22.003 M20.033,21.605
	c-0.006,0.004-0.014,0.008-0.021,0.012C20.019,21.613,20.026,21.61,20.033,21.605 M39.768,16.935
	c-0.002,0.014-0.002,0.028-0.003,0.042C39.766,16.963,39.766,16.949,39.768,16.935 M39.781,16.724
	c-0.001,0.03-0.004,0.06-0.006,0.089C39.777,16.783,39.78,16.753,39.781,16.724 M39.793,16.516
	c-0.002,0.043-0.005,0.087-0.008,0.131C39.788,16.603,39.791,16.559,39.793,16.516 M25.872,15.182
	c-0.034,0.069-0.069,0.136-0.104,0.203C25.803,15.318,25.838,15.251,25.872,15.182 M26.337,14.188
	c0.615-1.429,1.013-2.855,1.263-4.176c-0.283,1.5-0.751,3.115-1.505,4.716C26.177,14.55,26.259,14.37,26.337,14.188 M27.7,9.449
	c-0.023,0.147-0.048,0.294-0.077,0.443C27.652,9.743,27.677,9.594,27.7,9.449 M27.757,9.085c-0.008,0.058-0.018,0.116-0.027,0.175
	C27.739,9.202,27.749,9.144,27.757,9.085 M27.836,8.477c-0.012,0.105-0.025,0.211-0.039,0.318
	C27.812,8.688,27.824,8.582,27.836,8.477 M27.885,8.039c-0.006,0.07-0.014,0.143-0.021,0.213C27.871,8.18,27.879,8.109,27.885,8.039
	 M27.962,7.061c-0.002,0.034-0.005,0.07-0.006,0.106C27.957,7.131,27.96,7.095,27.962,7.061 M27.976,6.771
	c-0.001,0.028-0.001,0.056-0.003,0.084C27.974,6.827,27.974,6.799,27.976,6.771 M27.993,6.309c0,0.025-0.002,0.052-0.002,0.077
	C27.991,6.361,27.993,6.334,27.993,6.309 M27.999,5.976c0,0,0,0,0,0.001c0,0.05-0.001,0.102-0.003,0.154
	C27.998,6.079,27.999,6.027,27.999,5.976 M28.001,5.926c0,0.012-0.002,0.023-0.002,0.036C27.999,5.949,28.001,5.938,28.001,5.926
	 M28.017,5.655c-0.001,0.023-0.005,0.047-0.006,0.07C28.012,5.702,28.015,5.678,28.017,5.655 M28.242,4.651
	c-0.116,0.324-0.192,0.659-0.225,0.997C28.049,5.303,28.126,4.968,28.242,4.651 M28.3,4.5c-0.008,0.02-0.016,0.041-0.023,0.061
	C28.284,4.541,28.292,4.52,28.3,4.5 M32.092,2.002c0.047,0.001,0.093,0.003,0.14,0.006C32.185,2.005,32.139,2.003,32.092,2.002
	 M31.803,2.005c-0.011,0-0.021,0.001-0.031,0.001C31.782,2.006,31.792,2.005,31.803,2.005"/>
</svg>
