<?xml version="1.0" encoding="utf-8"?>
<!-- Generator: Adobe Illustrator 16.0.0, SVG Export Plug-In . SVG Version: 6.00 Build 0)  -->
<!DOCTYPE svg PUBLIC "-//W3C//DTD SVG 1.1//EN" "http://www.w3.org/Graphics/SVG/1.1/DTD/svg11.dtd">
<svg version="1.1" id="Layer_1" xmlns="http://www.w3.org/2000/svg" xmlns:xlink="http://www.w3.org/1999/xlink" x="0px" y="0px"
	 width="64px" height="64px" viewBox="0 0 64 64" enable-background="new 0 0 64 64" xml:space="preserve">
<path fill="#FFFFFF" d="M62.8,22.401l-5.996-7.996c-0.236-0.314-0.516-0.587-0.805-0.846V4c0-2.208-1.791-3.999-4-3.999H12
	c-2.208,0-4,1.791-4,3.999v9.562c-0.287,0.257-0.563,0.527-0.798,0.839l-5.998,7.998C0.427,23.43,0.001,24.709,0.001,26V28
	c0,3.31,2.69,6,5.999,6l0,0v26c0,2.209,1.791,4,3.999,4h44.002c2.207,0,3.998-1.791,3.998-4V34h0.002c3.309,0,5.998-2.691,5.998-6
	V26C63.999,24.709,63.575,23.43,62.8,22.401L62.8,22.401z M51.999,4V12H12H12V4H51.999L51.999,4z M20.387,30h-8.379l8-14.001h4.379
	L20.387,30L20.387,30z M26.467,16h4.531V30h-8.529L26.467,16L26.467,16z M32.999,16h4.531l4,14.001h-8.531V16L32.999,16z M39.612,16
	h4.379l8,14.001h-8.379L39.612,16L39.612,16z M4,28V26c0-0.435,0.141-0.854,0.4-1.199l6-8C10.778,16.297,11.37,16,12,16h5.704
	L9.705,30H6C4.896,30,4,29.106,4,28L4,28z M39.999,60H25V40h15V60L39.999,60z M54.001,60h-12V40c0-1.105-0.898-2-2.002-2H25
	c-1.104,0-2.001,0.895-2.001,2v20h-13V34h44.002V60L54.001,60z M60.001,28c0,1.106-0.896,2.001-2,2.001h-3.707L46.296,16h5.703l0,0
	c0.631,0,1.223,0.298,1.6,0.802l6.002,8c0.26,0.346,0.4,0.765,0.4,1.199V28L60.001,28z"/>
</svg>
