<?xml version="1.0" encoding="utf-8"?>
<!-- Generator: Adobe Illustrator 18.0.0, SVG Export Plug-In . SVG Version: 6.00 Build 0)  -->
<!DOCTYPE svg PUBLIC "-//W3C//DTD SVG 1.1//EN" "http://www.w3.org/Graphics/SVG/1.1/DTD/svg11.dtd">
<svg version="1.1" xmlns="http://www.w3.org/2000/svg" xmlns:xlink="http://www.w3.org/1999/xlink" x="0px" y="0px"
	 viewBox="0 0 45 45" enable-background="new 0 0 45 45" width="45px" height="45px" xml:space="preserve">
<path fill="#FFFFFF" d="M39.7,42H6.3C4.5,42,3,40.5,3,38.7V9.1c0-1.8,1.5-3.3,3.3-3.3h5.4V3.3C11.8,2.6,12.3,2,13,2s1.2,0.6,1.2,1.3
	v2.5h7.5V3.3C21.7,2.6,22.3,2,23,2s1.2,0.6,1.2,1.3v2.5h7.5V3.3C31.7,2.6,32.3,2,33,2s1.2,0.6,1.2,1.3v2.5h5.4
	c1.8,0,3.3,1.5,3.3,3.3v29.6C43,40.5,41.5,42,39.7,42L39.7,42z M40.5,9.1c0-0.5-0.4-0.8-0.8-0.8h-5.4v2.5c0,0.7-0.6,1.2-1.2,1.2
	s-1.2-0.6-1.2-1.2V8.3h-7.5v2.5c0,0.7-0.6,1.2-1.2,1.2s-1.2-0.6-1.2-1.2V8.3h-7.5v2.5c0,0.7-0.6,1.2-1.2,1.2s-1.2-0.6-1.2-1.2V8.3
	H6.3c-0.5,0-0.8,0.4-0.8,0.8v29.6c0,0.5,0.4,0.8,0.8,0.8h33.3c0.5,0,0.8-0.4,0.8-0.8V9.1L40.5,9.1z M11.8,20.8V17h5v3.7H11.8
	L11.8,20.8z M11.8,27v-3.7h5V27H11.8L11.8,27z M11.8,33.2v-3.7h5v3.7H11.8L11.8,33.2z M20.5,33.2v-3.7h5v3.7H20.5L20.5,33.2z
	 M20.5,27v-3.7h5V27H20.5L20.5,27z M20.5,20.8V17h5v3.7H20.5L20.5,20.8z M29.2,33.2v-3.7h5v3.7H29.2L29.2,33.2z M29.2,27v-3.7h5V27
	H29.2L29.2,27z M29.2,20.8V17h5v3.7H29.2L29.2,20.8z"/>
</svg>
