<?xml version="1.0" encoding="utf-8"?>
<!-- Generator: Adobe Illustrator 16.0.3, SVG Export Plug-In . SVG Version: 6.00 Build 0)  -->
<!DOCTYPE svg PUBLIC "-//W3C//DTD SVG 1.1//EN" "http://www.w3.org/Graphics/SVG/1.1/DTD/svg11.dtd">
<svg version="1.1" xmlns="http://www.w3.org/2000/svg" xmlns:xlink="http://www.w3.org/1999/xlink" x="0px" y="0px"
	 width="45px" height="45px" viewBox="0 0 45 45" enable-background="new 0 0 45 45" xml:space="preserve">
<path fill="#ffffff" d="M40.999,25.55c-0.169,0.168-15.488,15.327-15.488,15.327c-1.657,1.641-4.338,1.641-5.995,0
	c0,0-13.991-13.844-15.49-15.327c-5.243-5.189-5.243-13.598,0-18.786c5.088-5.037,13.217-5.143,18.486-0.405
	c5.27-4.738,13.4-4.632,18.486,0.405C46.243,11.952,46.243,20.36,40.999,25.55L40.999,25.55z M39.002,8.74
	c-3.986-3.943-10.395-4.082-14.59-0.311l-1.899,1.708l-1.899-1.708C16.418,4.658,10.012,4.796,6.025,8.74
	c-4.134,4.088-4.134,10.744,0,14.833l15.489,15.325c0.549,0.545,1.445,0.545,1.997,0l15.49-15.325
	C43.136,19.483,43.136,12.828,39.002,8.74L39.002,8.74z M13.056,11.295h-0.001c-2.513,0-4.553,2.038-4.553,4.551v0.001
	c0,0.388-0.313,0.7-0.7,0.7c-0.389,0-0.702-0.312-0.702-0.7c0-3.285,2.665-5.948,5.95-5.952c0.004,0,0.004,0,0.005,0
	c0.387,0,0.701,0.313,0.701,0.7S13.442,11.295,13.056,11.295L13.056,11.295z"/>
</svg>
