<?xml version="1.0" encoding="utf-8"?>
<!-- Generator: Adobe Illustrator 16.0.0, SVG Export Plug-In . SVG Version: 6.00 Build 0)  -->
<!DOCTYPE svg PUBLIC "-//W3C//DTD SVG 1.1//EN" "http://www.w3.org/Graphics/SVG/1.1/DTD/svg11.dtd">
<svg version="1.1" id="Layer_1" xmlns="http://www.w3.org/2000/svg" xmlns:xlink="http://www.w3.org/1999/xlink" x="0px" y="0px"
	 width="64px" height="64px" viewBox="0 0 64 64" enable-background="new 0 0 64 64" xml:space="preserve">
<path fill="#ffbb42" d="M58.667,63.999H5.333C2.387,63.999,0,61.61,0,58.665V11.332c0-2.946,2.387-5.333,5.333-5.333H14v-4
	C14,0.894,14.896,0,15.999,0c1.105,0,2,0.894,2,1.999v4h12v-4C30,0.894,30.895,0,32,0c1.104,0,2,0.894,2,1.999v4h12v-4
	C46,0.894,46.896,0,48,0c1.104,0,1.999,0.894,1.999,1.999v4h8.668c2.945,0,5.332,2.387,5.332,5.333v47.333
	C63.999,61.61,61.612,63.999,58.667,63.999L58.667,63.999z M60,11.332C60,10.596,59.402,10,58.667,10h-8.668v3.999
	c0,1.106-0.896,2-1.999,2c-1.104,0-2-0.894-2-2V10H34v3.999c0,1.106-0.896,2-2,2c-1.105,0-2-0.894-2-2V10H18v3.999
	c0,1.106-0.895,2-2,2c-1.103,0-1.999-0.894-1.999-2V10H5.333c-0.736,0-1.334,0.596-1.334,1.332v47.333
	C3.999,59.402,4.597,60,5.333,60h53.334C59.402,60,60,59.402,60,58.665V11.332L60,11.332z M14,29.999V24h8v5.999H14L14,29.999z
	 M14,39.999V34h8v5.999H14L14,39.999z M14,50v-6.001h8V50H14L14,50z M27.999,50v-6.001H36V50H27.999L27.999,50z M27.999,39.999V34
	H36v5.999H27.999L27.999,39.999z M27.999,29.999V24H36v5.999H27.999L27.999,29.999z M42,50v-6.001h7.999V50H42L42,50z M42,39.999V34
	h7.999v5.999H42L42,39.999z M42,29.999V24h7.999v5.999H42L42,29.999z"/>
</svg>
