<?xml version="1.0" encoding="utf-8"?>
<!-- Generator: Adobe Illustrator 16.0.0, SVG Export Plug-In . SVG Version: 6.00 Build 0)  -->
<!DOCTYPE svg PUBLIC "-//W3C//DTD SVG 1.1//EN" "http://www.w3.org/Graphics/SVG/1.1/DTD/svg11.dtd">
<svg version="1.1" id="Layer_1" xmlns="http://www.w3.org/2000/svg" xmlns:xlink="http://www.w3.org/1999/xlink" x="0px" y="0px"
	 width="64px" height="64px" viewBox="0 0 64 64" enable-background="new 0 0 64 64" xml:space="preserve">
<path fill="#e13c4c" d="M54,41.996H10c-1.105,0-2-0.896-2-2.001v-28c0-1.105,0.895-1.991,2-1.991l44-0.008c1.104,0,2,0.894,2,1.999
	v28C56,41.101,55.104,41.996,54,41.996L54,41.996z M54,11.995H10v28.008h44V11.995L54,11.995z M58.019,54.002h-20.02v2.431
	l12.485,1.623c0.891,0.223,1.515,1.022,1.515,1.94c0,1.105-0.894,1.999-1.998,1.999H13.999c-1.105,0-1.999-0.894-1.999-1.999
	c0-0.918,0.625-1.718,1.515-1.94L26,56.433v-2.431H5.981C2.675,53.991,0,51.312,0,48.003V8.004C0,4.688,2.686,2.003,6,2.003h52
	c3.313,0,5.999,2.686,5.999,6.001v39.999C63.999,51.312,61.324,53.991,58.019,54.002L58.019,54.002z M60,8.004c0-1.104-0.896-2-2-2
	H6c-1.104,0-2,0.897-2,2v39.999c0,1.104,0.896,2,2,2H24h15.999H58c1.104,0,2-0.896,2-2V8.004L60,8.004z"/>
</svg>
