<?xml version="1.0" encoding="utf-8"?>
<!-- Generator: Adobe Illustrator 16.0.0, SVG Export Plug-In . SVG Version: 6.00 Build 0)  -->
<!DOCTYPE svg PUBLIC "-//W3C//DTD SVG 1.1//EN" "http://www.w3.org/Graphics/SVG/1.1/DTD/svg11.dtd">
<svg version="1.1" id="Layer_1" xmlns="http://www.w3.org/2000/svg" xmlns:xlink="http://www.w3.org/1999/xlink" x="0px" y="0px"
	 width="1px" height="4px" viewBox="0 0 1 4" enable-background="new 0 0 1 4" xml:space="preserve">
<path fill="#A9A9A9" d="M2,56.482H1v-1h1V56.482L2,56.482L2,56.482z M1,54.484H0v-1h1V54.484L1,54.484L1,54.484z M1,50.484H0v-1h1
	V50.484L1,50.484L1,50.484z M1,46.482H0v-0.998h1V46.482L1,46.482L1,46.482z M1,42.482H0v-0.998h1V42.482L1,42.482L1,42.482z
	 M1,38.482H0v-1h1V38.482L1,38.482L1,38.482z M1,34.482H0v-1h1V34.482L1,34.482L1,34.482z M1,30.482H0v-1h1V30.482L1,30.482
	L1,30.482z M1,26.482H0v-1h1V26.482L1,26.482L1,26.482z M1,22.484H0v-1.002h1V22.484L1,22.484L1,22.484z M1,18.484H0v-1.002h1
	V18.484L1,18.484L1,18.484z M1,14.484H0v-1.002h1V14.484L1,14.484L1,14.484z M1,10.484H0v-1h1V10.484L1,10.484L1,10.484z M1,6.484H0
	v-1h1V6.484L1,6.484L1,6.484z M1,2.484H0v-1h1V2.484L1,2.484L1,2.484z M1-1.517H0v-0.999h1V-1.517L1-1.517L1-1.517z M1-5.517H0
	v-0.999h1V-5.517L1-5.517L1-5.517z M1-9.517H0v-1h1V-9.517L1-9.517L1-9.517z M1-13.517H0v-1h1V-13.517L1-13.517L1-13.517z M1-17.517
	H0v-1h1V-17.517L1-17.517L1-17.517z M1-21.517H0v-1h1V-21.517L1-21.517L1-21.517z M1-25.517H0v-1h1V-25.517L1-25.517L1-25.517z
	 M1-29.516H0v-1h1V-29.516L1-29.516L1-29.516z M1-33.516H0v-1h1V-33.516L1-33.516L1-33.516z M1-36.516H0v-1h1V-36.516L1-36.516
	L1-36.516z M2-34.517H1v-0.999h1V-34.517L2-34.517L2-34.517z M2-30.517H1v-0.999h1V-30.517L2-30.517L2-30.517z M2-26.515H1v-1h1
	V-26.515L2-26.515L2-26.515z M2-22.516H1v-1h1V-22.516L2-22.516L2-22.516z M2-18.516H1v-1h1V-18.516L2-18.516L2-18.516z M2-14.516H1
	v-1h1V-14.516L2-14.516L2-14.516z M2-10.516H1v-1h1V-10.516L2-10.516L2-10.516z M2-6.516H1v-1h1V-6.516L2-6.516L2-6.516z M2,5.484H1
	V4.483h1V5.484L2,5.484L2,5.484z M2,9.484H1V8.482h1V9.484L2,9.484L2,9.484z M2,13.482H1v-0.998h1V13.482L2,13.482L2,13.482z
	 M2,17.482H1v-0.998h1V17.482L2,17.482L2,17.482z M2,21.484H1v-1h1V21.484L2,21.484L2,21.484z M2,25.484H1v-1h1V25.484L2,25.484
	L2,25.484z M2,29.484H1v-1h1V29.484L2,29.484L2,29.484z M2,33.484H1v-1h1V33.484L2,33.484L2,33.484z M2,37.484H1v-1h1V37.484
	L2,37.484L2,37.484z M2,41.484H1v-1h1V41.484L2,41.484L2,41.484z M2,45.484H1v-1h1V45.484L2,45.484L2,45.484z M2,49.484H1v-1.002h1
	V49.484L2,49.484L2,49.484z M2,53.484H1v-1.002h1V53.484L2,53.484L2,53.484z"/>
</svg>
