<?xml version="1.0" encoding="utf-8"?>
<!-- Generator: Adobe Illustrator 16.0.0, SVG Export Plug-In . SVG Version: 6.00 Build 0)  -->
<!DOCTYPE svg PUBLIC "-//W3C//DTD SVG 1.1//EN" "http://www.w3.org/Graphics/SVG/1.1/DTD/svg11.dtd">
<svg version="1.1" id="Layer_1" xmlns="http://www.w3.org/2000/svg" xmlns:xlink="http://www.w3.org/1999/xlink" x="0px" y="0px"
	 width="4px" height="1px" viewBox="0 0 4 1" enable-background="new 0 0 4 1" xml:space="preserve">
<path fill="#A9A9A9" d="M39.516,1.998h-0.999V1h-1V0h1v1h0.999V1.998L39.516,1.998L39.516,1.998z M35.515,1.998h-0.999V1h-0.999V0
	h1.001v1h0.997V1.998L35.515,1.998L35.515,1.998z M31.516,1.998h-1.001V1h-0.997V0h0.999v1h0.999V1.998L31.516,1.998L31.516,1.998z
	 M27.516,1.998h-1V1h-0.999V0h0.999v1h1V1.998L27.516,1.998L27.516,1.998z M23.517,1.998h-1.001V1h-1V0h1.001v1h1V1.998
	L23.517,1.998L23.517,1.998z M19.516,1.998h-0.999V1h-1V0h1v1h0.999V1.998L19.516,1.998L19.516,1.998z M15.515,1.998h-0.999V1
	h-0.999V0h1.001v1h0.997V1.998L15.515,1.998L15.515,1.998z M11.516,1.998h-1.001V1H9.518V0h0.999v1h0.999V1.998L11.516,1.998
	L11.516,1.998z M7.516,1.998h-1V1H5.517V0h1.001v1h0.998V1.998L7.516,1.998L7.516,1.998z M3.517,1.998H2.516V1H1.518V0h0.999v1h1
	V1.998L3.517,1.998L3.517,1.998z M-0.484,1.998h-0.999V1h-1V0h1v1h0.999V1.998L-0.484,1.998L-0.484,1.998z M-4.485,1.998h-1V1h-1V0
	h1.001v1h0.998V1.998L-4.485,1.998L-4.485,1.998z M-8.484,1.998h-1.001V1h-0.998V0h1v1h1V1.998L-8.484,1.998L-8.484,1.998z
	 M-12.485,1.998h-0.999V1h-1V0h1.001v1h0.998V1.998L-12.485,1.998L-12.485,1.998z M-16.484,1.998h-1.001V1h-0.998V0h0.999v1h1V1.998
	L-16.484,1.998L-16.484,1.998z M-20.484,1.998h-1V1h-1V0h1v1h1V1.998L-20.484,1.998L-20.484,1.998z M-24.483,1.998h-1.001V1h-1V0
	h1.001v1h1V1.998L-24.483,1.998L-24.483,1.998z M-28.484,1.998h-0.999V1h-1V0h1v1h0.999V1.998L-28.484,1.998L-28.484,1.998z
	 M-32.485,1.998h-1V1h-0.999V0h1.001v1h0.998V1.998L-32.485,1.998L-32.485,1.998z M-36.484,1.998h-1.001V1h-0.998V0h0.999v1h1V1.998
	L-36.484,1.998L-36.484,1.998z M-40.484,1.998h-1V1h-1V0h1v1h1V1.998L-40.484,1.998L-40.484,1.998z"/>
</svg>
