<?xml version="1.0" encoding="utf-8"?>
<!-- Generator: Adobe Illustrator 16.0.0, SVG Export Plug-In . SVG Version: 6.00 Build 0)  -->
<!DOCTYPE svg PUBLIC "-//W3C//DTD SVG 1.1//EN" "http://www.w3.org/Graphics/SVG/1.1/DTD/svg11.dtd">
<svg version="1.1" id="Layer_1" xmlns="http://www.w3.org/2000/svg" xmlns:xlink="http://www.w3.org/1999/xlink" x="0px" y="0px"
	 width="24px" height="27px" viewBox="0 0 24 27" enable-background="new 0 0 24 27" xml:space="preserve">
<path fill="#E1E1E1" d="M12,27.002C5.973,27.002,0,26,0,26l3-7.998c0,0,4.862-2.002,9-2.002c4.456,0,9,2.002,9,2.002L24,26
	C24,26,17.972,27.002,12,27.002L12,27.002z M19,8c0,1.717-2.715,6-7,6c-4.286,0-7-4.282-7-6c0-0.378-0.053-1.638,0-2
	C5.502,2.5,8.564,0,12,0c3.389,0,6.443,2.567,7,6.001C19.066,6.405,19,7.575,19,8L19,8z"/>
</svg>
