<?xml version="1.0" encoding="utf-8"?>
<!-- Generator: Adobe Illustrator 16.0.0, SVG Export Plug-In . SVG Version: 6.00 Build 0)  -->
<!DOCTYPE svg PUBLIC "-//W3C//DTD SVG 1.1//EN" "http://www.w3.org/Graphics/SVG/1.1/DTD/svg11.dtd">
<svg version="1.1" id="Layer_1" xmlns="http://www.w3.org/2000/svg" xmlns:xlink="http://www.w3.org/1999/xlink" x="0px" y="0px"
	 width="30px" height="20px" viewBox="0 0 30 20" enable-background="new 0 0 30 20" xml:space="preserve">
<g>
	<defs>
		<path id="SVGID_1_" d="M15.001,19.532c-5.696,0-15-6.562-15-9.377c0-2.811,9.304-9.374,15-9.374
			c5.695,0,14.998,6.563,14.998,9.374C29.999,12.97,20.696,19.532,15.001,19.532L15.001,19.532z M15.001,2.656
			c-4.142,0-7.501,3.357-7.501,7.499s3.359,7.5,7.501,7.5s7.5-3.358,7.5-7.5S19.143,2.656,15.001,2.656L15.001,2.656z
			 M15.001,13.907c-2.073,0-3.751-1.68-3.751-3.752c0-2.07,1.678-3.749,3.751-3.749c2.071,0,3.75,1.679,3.75,3.749
			C18.751,12.228,17.072,13.907,15.001,13.907L15.001,13.907z"/>
	</defs>
	<use xlink:href="#SVGID_1_"  overflow="visible" fill="#FFFFFF"/>
	<clipPath id="SVGID_2_">
		<use xlink:href="#SVGID_1_"  overflow="visible"/>
	</clipPath>
</g>
</svg>
