<?xml version="1.0" encoding="utf-8"?>
<!-- Generator: Adobe Illustrator 16.0.0, SVG Export Plug-In . SVG Version: 6.00 Build 0)  -->
<!DOCTYPE svg PUBLIC "-//W3C//DTD SVG 1.1//EN" "http://www.w3.org/Graphics/SVG/1.1/DTD/svg11.dtd">
<svg version="1.1" id="Layer_1" xmlns="http://www.w3.org/2000/svg" xmlns:xlink="http://www.w3.org/1999/xlink" x="0px" y="0px"
	 width="15px" height="15px" viewBox="0 0 15 15" enable-background="new 0 0 15 15" xml:space="preserve">
<path fill="#7A7A7A" d="M14.857,13.871c0.182,0.182,0.182,0.477,0,0.658l-0.328,0.328c-0.182,0.182-0.478,0.182-0.658,0l-3.579-3.58
	c-0.037-0.035-0.03-0.086-0.054-0.125C9.154,12.031,7.793,12.58,6.29,12.58C2.816,12.58,0,9.766,0,6.291C0,2.817,2.816,0,6.291,0
	c3.475,0,6.292,2.816,6.292,6.291c0,1.504-0.551,2.865-1.431,3.948c0.041,0.022,0.091,0.017,0.127,0.054L14.857,13.871
	L14.857,13.871z M11.609,6.291c0-2.938-2.383-5.317-5.319-5.317c-2.937,0-5.317,2.38-5.317,5.317c0,2.938,2.38,5.316,5.317,5.316
	C9.227,11.607,11.609,9.229,11.609,6.291L11.609,6.291z"/>
</svg>
