<?xml version="1.0" encoding="utf-8"?>
<!DOCTYPE svg PUBLIC "-//W3C//DTD SVG 1.1//EN" "http://www.w3.org/Graphics/SVG/1.1/DTD/svg11.dtd">
<svg version="1.1" xmlns="http://www.w3.org/2000/svg" xmlns:xlink="http://www.w3.org/1999/xlink" x="0px" y="0px"
	 width="22px" height="18px" viewBox="0 0 22 18" enable-background="new 0 0 22 18" xml:space="preserve">
<path fill="#FFFFFF" d="M0,11.947C0,15.849,2.295,18,4.906,18c2.374,0,4.193-1.913,4.193-4.221c0-2.391-1.583-4.063-3.798-4.063
	c-0.396,0-0.949,0.079-1.029,0.079C4.51,7.248,6.805,4.063,9.336,2.391L6.41,0.001C2.769,2.631,0,7.088,0,11.947L0,11.947z
	 M12.66,11.947c0,3.901,2.295,6.053,4.906,6.053c2.373,0,4.272-1.913,4.272-4.221c0-2.391-1.661-4.063-3.877-4.063
	c-0.396,0-0.95,0.079-1.028,0.079c0.315-2.548,2.531-5.733,5.063-7.405l-2.928-2.39C15.43,2.631,12.66,7.088,12.66,11.947
	L12.66,11.947z"/>
</svg>
